# xmcd CD database file
#
# Track frame offsets:
#	150
#	15060
#	26305
#	42465
#	53597
#	75340
#	93757
#	108650
#	126525
#	138630
#	153634
#	164840
#	180007
#	200265
#	215037
#	236522
#	250295
#	263782
#
# Disc length: 3745 seconds
#
# Revision: 2
# Processed by: cddbd v1.5.1PL2 Copyright (c) Steve Scherf et al.
# Submitted via: CDex 1.51
#
DISCID=eb0e9f12
DTITLE=Δημοτική Παράδοση 1 - CD 3
DYEAR=1900
DGENRE=ΔΗΜΟΤΙΚΑ
TTITLE0=Η Νερατζούλα - Ευγενία Βέρρα
TTITLE1=Ολα τα πουλάκια - Κική Φραγκούλη
TTITLE2=Ο δυόσμος και ο βασιλικός - Κική Φραγκούλη
TTITLE3=Ο πλάτανος - Ανδρέας Ανδριόπουλος
TTITLE4=Η ματζουράνα - Κική Φραγκούλη
TTITLE5=Κάτω στου βάλτου - Ανδρέας Ανδριόπουλος
TTITLE6=Μαρία πενταγιώτισσα - Κική Φραγκούλη
TTITLE7=Λουλούδι της Μονεμβασιάς - Ανδρέας Ανδριόπουλος
TTITLE8=Αιγιώτισσα - Ευγενία Βέρρα
TTITLE9=Παπαλάμπραινα - Κική Φραγκούλη
TTITLE10=Μας πήρε το ποτάμι - Ευγενία Βέρρα
TTITLE11=Ο γεροτσέλιγκας - Ευγενία Βέρρα
TTITLE12=Ο αμάραντος - Κική Φραγκούλη
TTITLE13=Μια βλάχα μια παλιόβλαχα - Ανδρέας Ανδριόπουλος
TTITLE14=Χαλασιά μου - Αθανασίου Πάνος
TTITLE15=Εξέφεξε η Ανατολή - Αθανασίου Πάνος
TTITLE16=Γιούργια - Καλογήρου Δημήτρης
TTITLE17=Καραγκούνα (Ορχηστρικό)
EXTD=
EXTT0=
EXTT1=
EXTT2=
EXTT3=
EXTT4=
EXTT5=
EXTT6=
EXTT7=
EXTT8=
EXTT9=
EXTT10=
EXTT11=
EXTT12=
EXTT13=
EXTT14=
EXTT15=
EXTT16=
EXTT17=
PLAYORDER=
